{"title":"Narnia, De Leeuw, de Heks en de Kleerkast 2005 DVD rip Dutch Kla","uid":6485409,"size":2089307910,"categoryP":"video","categoryS":"movies","magnet":"?xt=urn:btih:e30e01188e82d9186a54b40c787d583fb61416d1&amp;dn=Narnia%2C+De+Leeuw%2C+de+Heks+en+de+Kleerkast+2005+DVD+rip+Dutch+Kla&amp;tr=udp%3A%2F%2Ftracker.openbittorrent.com%3A80&amp;tr=udp%3A%2F%2Fopen.demonii.com%3A1337&amp;tr=udp%3A%2F%2Ftracker.coppersurfer.tk%3A6969&amp;tr=udp%3A%2F%2Fexodus.desync.com%3A6969","seeders":1,"leechers":0,"uploader":"Klambake","files":-1,"time":1308689875,"description":"Nederlands gesproken, en met bekende Nederlandse stemmen,\n\nVier Britse kinderen worden naar het buitenhuis van een professor gestuurd, waar ze veilig zullen zijn tijdens de Tweede Wereldoorlog. Ze vinden een magische garderobe, waarmee ze in het mysterieuze land Narnia kunnen komen. Het land wordt overheerst door een slechte heks, en om haar te kunnen verslaan, moeten de kinderen leeuwenkoning Aslan vergezellen.\n\nDutch spoken.\n\n------------------ Dutch Friends ------------------\n\nVrienden van mij vind je hier: http://www.Film-Test.nl \n                    \n------ They got my dutchs subs ---- and more ------\n\nGeneral:\n\nComplete name                    : Narnia\\De Leeuw, de Heks en de Kleerkast.avi\nFormat                           : AVI\nFormat/Info                      : Audio Video Interleave\nFile size                        : 1.95 GiB\nDuration                         : 2h 16mn\nOverall bit rate                 : 2 043 Kbps\n\nVideo:\n\nFormat                           : MPEG-4 Visual\nFormat profile                   : Simple@L3\nFormat settings, BVOP            : No\nFormat settings, QPel            : No\nFormat settings, GMC             : No warppoints\nFormat settings, Matrix          : Default (H.263)\nCodec ID                         : XVID\nCodec ID/Hint                    : XviD\nDuration                         : 2h 16mn\nBit rate                         : 1 648 Kbps\nWidth                            : 720 pixels\nHeight                           : 304 pixels\nDisplay aspect ratio             : 2.35:1\nFrame rate                       : 25.000 fps\nColor space                      : YUV\nChroma subsampling               : 4:2:0\nBit depth                        : 8 bits\nScan type                        : Progressive\nBits/(Pixel*Frame)               : 0.301\nStream size                      : 1.57 GiB (81%)\nWriting library                  : XviD 1.1.2 (UTC 2006-11-01)\n\nAudio:\n\nFormat                           : AC-3\nFormat/Info                      : Audio Coding 3\nMode extension                   : CM (complete main)\nCodec ID                         : 2000\nDuration                         : 2h 16mn\nBit rate mode                    : Constant\nBit rate                         : 384 Kbps\nChannel(s)                       : 6 channels\nChannel positions                : Front: L C R, Side: L R, LFE\nSampling rate                    : 48.0 KHz\nBit depth                        : 16 bits\nStream size                      : 374 MiB (19%)\nAlignment                        : Aligned on interleaves\nInterleave, duration             : 32 ms (0.80 video frame)\nInterleave, preload duration     : 384 ms\n\n","torrent":{"xt":"urn:btih:e30e01188e82d9186a54b40c787d583fb61416d1","amp;dn":"Narnia%2C+De+Leeuw%2C+de+Heks+en+de+Kleerkast+2005+DVD+rip+Dutch+Kla","amp;tr":["udp%3A%2F%2Ftracker.openbittorrent.com%3A80","udp%3A%2F%2Fopen.demonii.com%3A1337","udp%3A%2F%2Ftracker.coppersurfer.tk%3A6969","udp%3A%2F%2Fexodus.desync.com%3A6969"],"infoHash":"e30e01188e82d9186a54b40c787d583fb61416d1","infoHashBuffer":{"type":"Buffer","data":[227,14,1,24,142,130,217,24,106,84,180,12,120,125,88,63,182,20,22,209]},"announce":[],"urlList":[]}}